<svg width="270" height="61" viewBox="0 0 270 61" fill="none" xmlns="http://www.w3.org/2000/svg">
<path d="M83.6621 16.7441L86.4941 4.78125H88.0762L88.4375 6.77344L85.4199 19H83.7207L83.6621 16.7441ZM82.207 4.78125L84.5508 16.7441L84.3555 19H82.4609L79.3066 4.78125H82.207ZM90.9277 16.6953L93.2422 4.78125H96.1426L92.998 19H91.1035L90.9277 16.6953ZM88.9648 4.78125L91.8164 16.793L91.7383 19H90.0391L87.002 6.76367L87.3926 4.78125H88.9648ZM109.414 11.5586V12.2324C109.414 13.3132 109.268 14.2832 108.975 15.1426C108.682 16.002 108.268 16.7344 107.734 17.3398C107.201 17.9388 106.562 18.3978 105.82 18.7168C105.085 19.0358 104.268 19.1953 103.369 19.1953C102.477 19.1953 101.66 19.0358 100.918 18.7168C100.182 18.3978 99.5443 17.9388 99.0039 17.3398C98.4635 16.7344 98.0436 16.002 97.7441 15.1426C97.4512 14.2832 97.3047 13.3132 97.3047 12.2324V11.5586C97.3047 10.4714 97.4512 9.5013 97.7441 8.64844C98.0371 7.78906 98.4505 7.05664 98.9844 6.45117C99.5247 5.8457 100.163 5.38346 100.898 5.06445C101.641 4.74544 102.458 4.58594 103.35 4.58594C104.248 4.58594 105.065 4.74544 105.801 5.06445C106.543 5.38346 107.181 5.8457 107.715 6.45117C108.255 7.05664 108.672 7.78906 108.965 8.64844C109.264 9.5013 109.414 10.4714 109.414 11.5586ZM106.455 12.2324V11.5391C106.455 10.7839 106.387 10.1198 106.25 9.54688C106.113 8.97396 105.911 8.49219 105.645 8.10156C105.378 7.71094 105.052 7.41797 104.668 7.22266C104.284 7.02083 103.844 6.91992 103.35 6.91992C102.855 6.91992 102.415 7.02083 102.031 7.22266C101.654 7.41797 101.331 7.71094 101.064 8.10156C100.804 8.49219 100.605 8.97396 100.469 9.54688C100.332 10.1198 100.264 10.7839 100.264 11.5391V12.2324C100.264 12.9811 100.332 13.6452 100.469 14.2246C100.605 14.7975 100.807 15.2826 101.074 15.6797C101.341 16.0703 101.667 16.3665 102.051 16.5684C102.435 16.7702 102.874 16.8711 103.369 16.8711C103.864 16.8711 104.303 16.7702 104.688 16.5684C105.072 16.3665 105.394 16.0703 105.654 15.6797C105.915 15.2826 106.113 14.7975 106.25 14.2246C106.387 13.6452 106.455 12.9811 106.455 12.2324ZM111.523 4.78125H116.826C117.913 4.78125 118.848 4.94401 119.629 5.26953C120.417 5.59505 121.022 6.07682 121.445 6.71484C121.868 7.35286 122.08 8.13737 122.08 9.06836C122.08 9.83008 121.95 10.4844 121.689 11.0312C121.436 11.5716 121.074 12.0241 120.605 12.3887C120.143 12.7467 119.6 13.0332 118.975 13.248L118.047 13.7363H113.438L113.418 11.4512H116.846C117.36 11.4512 117.786 11.36 118.125 11.1777C118.464 10.9954 118.717 10.7415 118.887 10.416C119.062 10.0905 119.15 9.71289 119.15 9.2832C119.15 8.82747 119.066 8.43359 118.896 8.10156C118.727 7.76953 118.47 7.51562 118.125 7.33984C117.78 7.16406 117.347 7.07617 116.826 7.07617H114.453V19H111.523V4.78125ZM119.473 19L116.23 12.6621L119.326 12.6426L122.607 18.8633V19H119.473ZM133.477 16.7148V19H126.318V16.7148H133.477ZM127.266 4.78125V19H124.336V4.78125H127.266ZM139.521 19H136.426L136.445 16.7148H139.521C140.29 16.7148 140.938 16.5423 141.465 16.1973C141.992 15.8457 142.389 15.3346 142.656 14.6641C142.93 13.9935 143.066 13.1829 143.066 12.2324V11.5391C143.066 10.8099 142.988 10.1686 142.832 9.61523C142.682 9.06185 142.458 8.59635 142.158 8.21875C141.859 7.84115 141.491 7.55794 141.055 7.36914C140.618 7.17383 140.117 7.07617 139.551 7.07617H136.367V4.78125H139.551C140.501 4.78125 141.37 4.94401 142.158 5.26953C142.952 5.58854 143.639 6.04753 144.219 6.64648C144.798 7.24544 145.244 7.96159 145.557 8.79492C145.876 9.62174 146.035 10.543 146.035 11.5586V12.2324C146.035 13.2415 145.876 14.1628 145.557 14.9961C145.244 15.8294 144.798 16.5456 144.219 17.1445C143.646 17.737 142.959 18.196 142.158 18.5215C141.364 18.8405 140.485 19 139.521 19ZM138.086 4.78125V19H135.156V4.78125H138.086ZM161.387 14.2832H164.307C164.248 15.2402 163.984 16.0898 163.516 16.832C163.053 17.5742 162.406 18.1536 161.572 18.5703C160.745 18.987 159.749 19.1953 158.584 19.1953C157.673 19.1953 156.855 19.0391 156.133 18.7266C155.41 18.4076 154.792 17.9518 154.277 17.3594C153.77 16.7669 153.382 16.0508 153.115 15.2109C152.848 14.3711 152.715 13.4303 152.715 12.3887V11.4023C152.715 10.3607 152.852 9.41992 153.125 8.58008C153.405 7.73372 153.802 7.01432 154.316 6.42188C154.837 5.82943 155.459 5.3737 156.182 5.05469C156.904 4.73568 157.712 4.57617 158.604 4.57617C159.788 4.57617 160.788 4.79102 161.602 5.2207C162.422 5.65039 163.057 6.24284 163.506 6.99805C163.962 7.75326 164.235 8.61263 164.326 9.57617H161.396C161.364 9.00326 161.25 8.51823 161.055 8.12109C160.859 7.71745 160.563 7.41471 160.166 7.21289C159.775 7.00456 159.255 6.90039 158.604 6.90039C158.115 6.90039 157.689 6.99154 157.324 7.17383C156.96 7.35612 156.654 7.63281 156.406 8.00391C156.159 8.375 155.973 8.84375 155.85 9.41016C155.732 9.97005 155.674 10.6276 155.674 11.3828V12.3887C155.674 13.1243 155.729 13.7721 155.84 14.332C155.951 14.8854 156.12 15.3542 156.348 15.7383C156.582 16.1159 156.882 16.4023 157.246 16.5977C157.617 16.7865 158.063 16.8809 158.584 16.8809C159.196 16.8809 159.701 16.7832 160.098 16.5879C160.495 16.3926 160.798 16.1029 161.006 15.7188C161.221 15.3346 161.348 14.8561 161.387 14.2832ZM174.082 4.78125H177.002V14.1758C177.002 15.2695 176.768 16.1908 176.299 16.9395C175.837 17.6882 175.195 18.2513 174.375 18.6289C173.561 19.0065 172.624 19.1953 171.562 19.1953C170.501 19.1953 169.557 19.0065 168.73 18.6289C167.91 18.2513 167.266 17.6882 166.797 16.9395C166.335 16.1908 166.104 15.2695 166.104 14.1758V4.78125H169.033V14.1758C169.033 14.8138 169.134 15.3346 169.336 15.7383C169.538 16.1419 169.827 16.4382 170.205 16.627C170.589 16.8158 171.042 16.9102 171.562 16.9102C172.096 16.9102 172.549 16.8158 172.92 16.627C173.298 16.4382 173.584 16.1419 173.779 15.7383C173.981 15.3346 174.082 14.8138 174.082 14.1758V4.78125ZM184.951 13.9316H181.328V11.6465H184.951C185.511 11.6465 185.967 11.5553 186.318 11.373C186.67 11.1842 186.927 10.9238 187.09 10.5918C187.253 10.2598 187.334 9.88542 187.334 9.46875C187.334 9.04557 187.253 8.65169 187.09 8.28711C186.927 7.92253 186.67 7.62956 186.318 7.4082C185.967 7.18685 185.511 7.07617 184.951 7.07617H182.344V19H179.414V4.78125H184.951C186.064 4.78125 187.018 4.98307 187.812 5.38672C188.613 5.78385 189.225 6.33398 189.648 7.03711C190.072 7.74023 190.283 8.54427 190.283 9.44922C190.283 10.3672 190.072 11.1615 189.648 11.832C189.225 12.5026 188.613 13.0202 187.812 13.3848C187.018 13.7493 186.064 13.9316 184.951 13.9316Z" fill="#F7DD43"/>
<path d="M72.9492 44.9248H77.3291C77.2412 46.3604 76.8457 47.6348 76.1426 48.748C75.4492 49.8613 74.4775 50.7305 73.2275 51.3555C71.9873 51.9805 70.4932 52.293 68.7451 52.293C67.3779 52.293 66.1523 52.0586 65.0684 51.5898C63.9844 51.1113 63.0566 50.4277 62.2852 49.5391C61.5234 48.6504 60.9424 47.5762 60.542 46.3164C60.1416 45.0566 59.9414 43.6455 59.9414 42.083V40.6035C59.9414 39.041 60.1465 37.6299 60.5566 36.3701C60.9766 35.1006 61.5723 34.0215 62.3438 33.1328C63.125 32.2441 64.0576 31.5605 65.1416 31.082C66.2256 30.6035 67.4365 30.3643 68.7744 30.3643C70.5518 30.3643 72.0508 30.6865 73.2715 31.3311C74.502 31.9756 75.4541 32.8643 76.1279 33.9971C76.8115 35.1299 77.2217 36.4189 77.3584 37.8643H72.9639C72.915 37.0049 72.7441 36.2773 72.4512 35.6816C72.1582 35.0762 71.7139 34.6221 71.1182 34.3193C70.5322 34.0068 69.751 33.8506 68.7744 33.8506C68.042 33.8506 67.4023 33.9873 66.8555 34.2607C66.3086 34.5342 65.8496 34.9492 65.4785 35.5059C65.1074 36.0625 64.8291 36.7656 64.6436 37.6152C64.4678 38.4551 64.3799 39.4414 64.3799 40.5742V42.083C64.3799 43.1865 64.4629 44.1582 64.6289 44.998C64.7949 45.8281 65.0488 46.5312 65.3906 47.1074C65.7422 47.6738 66.1914 48.1035 66.7383 48.3965C67.2949 48.6797 67.9639 48.8213 68.7451 48.8213C69.6631 48.8213 70.4199 48.6748 71.0156 48.3818C71.6113 48.0889 72.0654 47.6543 72.3779 47.0781C72.7002 46.502 72.8906 45.7842 72.9492 44.9248ZM88.8867 34.3193L83.0859 52H78.4131L86.3379 30.6719H89.3115L88.8867 34.3193ZM93.7061 52L87.8906 34.3193L87.4219 30.6719H90.4248L98.3936 52H93.7061ZM93.4424 44.0605V47.5029H82.1777V44.0605H93.4424ZM114.082 48.5723V52H103.345V48.5723H114.082ZM104.766 30.6719V52H100.371V30.6719H104.766ZM130.913 48.5723V52H119.561V48.5723H130.913ZM120.996 30.6719V52H116.602V30.6719H120.996ZM129.434 39.3584V42.6982H119.561V39.3584H129.434ZM130.898 30.6719V34.1143H119.561V30.6719H130.898ZM150.835 30.6719V52H146.44L137.871 37.7031V52H133.477V30.6719H137.871L146.455 44.9834V30.6719H150.835ZM161.206 52H156.562L156.592 48.5723H161.206C162.358 48.5723 163.33 48.3135 164.121 47.7959C164.912 47.2686 165.508 46.502 165.908 45.4961C166.318 44.4902 166.523 43.2744 166.523 41.8486V40.8086C166.523 39.7148 166.406 38.7529 166.172 37.9229C165.947 37.0928 165.61 36.3945 165.161 35.8281C164.712 35.2617 164.16 34.8369 163.506 34.5537C162.852 34.2607 162.1 34.1143 161.25 34.1143H156.475V30.6719H161.25C162.676 30.6719 163.979 30.916 165.161 31.4043C166.353 31.8828 167.383 32.5713 168.252 33.4697C169.121 34.3682 169.79 35.4424 170.259 36.6924C170.737 37.9326 170.977 39.3145 170.977 40.8379V41.8486C170.977 43.3623 170.737 44.7441 170.259 45.9941C169.79 47.2441 169.121 48.3184 168.252 49.2168C167.393 50.1055 166.362 50.7939 165.161 51.2822C163.97 51.7607 162.651 52 161.206 52ZM159.053 30.6719V52H154.658V30.6719H159.053ZM182.52 34.3193L176.719 52H172.046L179.971 30.6719H182.944L182.52 34.3193ZM187.339 52L181.523 34.3193L181.055 30.6719H184.058L192.026 52H187.339ZM187.075 44.0605V47.5029H175.811V44.0605H187.075ZM194.004 30.6719H201.958C203.589 30.6719 204.99 30.916 206.162 31.4043C207.344 31.8926 208.252 32.6152 208.887 33.5723C209.521 34.5293 209.839 35.7061 209.839 37.1025C209.839 38.2451 209.644 39.2266 209.253 40.0469C208.872 40.8574 208.33 41.5361 207.627 42.083C206.934 42.6201 206.118 43.0498 205.181 43.3721L203.789 44.1045H196.875L196.846 40.6768H201.987C202.759 40.6768 203.398 40.54 203.906 40.2666C204.414 39.9932 204.795 39.6123 205.049 39.124C205.312 38.6357 205.444 38.0693 205.444 37.4248C205.444 36.7412 205.317 36.1504 205.063 35.6523C204.81 35.1543 204.424 34.7734 203.906 34.5098C203.389 34.2461 202.739 34.1143 201.958 34.1143H198.398V52H194.004V30.6719ZM205.928 52L201.064 42.4932L205.708 42.4639L210.63 51.7949V52H205.928Z" fill="url(#paint0_linear_122_239)"/>
<defs>
<linearGradient id="paint0_linear_122_239" x1="135" y1="23" x2="135" y2="61" gradientUnits="userSpaceOnUse">
<stop stop-color="white"/>
<stop offset="1" stop-color="#D9D9D9" stop-opacity="0.8"/>
</linearGradient>
</defs>
</svg>
